<svg xmlns="http://www.w3.org/2000/svg" xmlns:xlink="http://www.w3.org/1999/xlink" preserveAspectRatio="xMidYMid" width="102" height="62.719" viewBox="0 0 102 62.719">
  <defs>
    <style>
      .cls-1 {
        fill: #39f;
        fill-rule: evenodd;
      }
    </style>
  </defs>
  <path d="M102.000,62.719 L66.000,62.719 L60.161,62.719 L54.527,62.719 L54.083,62.719 L50.098,62.719 L49.580,62.719 L43.946,62.719 L29.000,62.719 L-0.000,62.719 L-0.000,57.719 L38.946,57.719 L11.674,30.447 L42.129,-0.008 L82.509,40.372 L65.161,57.719 L102.000,57.719 L102.000,62.719 ZM18.963,28.719 L39.986,28.723 L40.112,7.644 L18.963,28.719 ZM41.900,40.751 C41.893,40.744 41.887,40.736 41.881,40.729 C40.630,39.468 39.922,37.788 39.938,36.118 L39.962,32.706 L19.269,32.703 L44.580,57.719 L50.007,57.719 L50.033,42.705 L46.480,42.717 C44.817,42.717 43.151,42.002 41.900,40.751 ZM44.095,7.595 L43.922,36.150 C43.917,36.769 44.204,37.415 44.710,37.924 C44.714,37.927 44.716,37.930 44.719,37.933 C45.220,38.433 45.873,38.733 46.473,38.732 L75.136,38.636 L44.095,7.595 ZM74.623,42.622 L54.017,42.691 L53.991,57.719 L59.527,57.719 L74.623,42.622 Z" class="cls-1"/>
</svg>
