<?xml version="1.0" encoding="utf-8"?>
<!-- Generator: Adobe Illustrator 18.1.1, SVG Export Plug-In . SVG Version: 6.00 Build 0)  -->
<svg version="1.1" xmlns="http://www.w3.org/2000/svg" xmlns:xlink="http://www.w3.org/1999/xlink" x="0px" y="0px"
	 viewBox="0 0 16 16" enable-background="new 0 0 16 16" xml:space="preserve">
<g id="Shape_37_1_" enable-background="new    ">
	<g id="Shape_37">
		<g>
			<path fill-rule="evenodd" clip-rule="evenodd" fill="#272829" d="M11.4,4H6.6L5,2.2l0,0C4.9,2.1,4.8,2,4.6,2h-4
				C0.3,2,0,2.3,0,2.6v10.8C0,13.7,0.3,14,0.6,14h2.7H6h5.4c0.3,0,0.6-0.3,0.6-0.6V4.6C12,4.3,11.7,4,11.4,4z"/>
		</g>
	</g>
</g>
<g id="Shape_37_copy_3_1_" enable-background="new    ">
	<g id="Shape_37_copy_3">
		<g>
			<path fill-rule="evenodd" clip-rule="evenodd" fill="#606167" d="M15.4,6H5.1c-0.4,0-1,0.4-1.2,0.9l-3.4,6.2
				C0.2,13.6,0.3,14,0.7,14h10.4c0.4,0,1-0.4,1.2-0.9l3.4-6.2C16,6.4,15.8,6,15.4,6z"/>
		</g>
	</g>
</g>
</svg>
