<?xml version="1.0" encoding="utf-8"?>
<!-- Generator: Adobe Illustrator 18.1.1, SVG Export Plug-In . SVG Version: 6.00 Build 0)  -->
<svg version="1.1" xmlns="http://www.w3.org/2000/svg" xmlns:xlink="http://www.w3.org/1999/xlink" x="0px" y="0px"
	 viewBox="0 0 16 16" enable-background="new 0 0 16 16" xml:space="preserve">
<g id="Shape_37_1_" enable-background="new    ">
	<g id="Shape_37">
		<g>
			<path fill-rule="evenodd" clip-rule="evenodd" fill="#126DC8" d="M11.4,6H6.6L5,4.2l0,0C4.9,4.1,4.8,4,4.6,4h-4
				C0.3,4,0,4.3,0,4.6v10.8C0,15.7,0.3,16,0.6,16h2.7H6h5.4c0.3,0,0.6-0.3,0.6-0.6V6.6C12,6.3,11.7,6,11.4,6z"/>
		</g>
	</g>
</g>
<g id="Shape_37_copy_3_1_" enable-background="new    ">
	<g id="Shape_37_copy_3">
		<g>
			<path fill-rule="evenodd" clip-rule="evenodd" fill="#3399FF" d="M15.4,8H5.1c-0.4,0-1,0.4-1.2,0.9l-3.4,6.2
				C0.2,15.6,0.3,16,0.7,16h10.4c0.4,0,1-0.4,1.2-0.9l3.4-6.2C16,8.4,15.8,8,15.4,8z"/>
		</g>
	</g>
</g>
</svg>
