<svg xmlns="http://www.w3.org/2000/svg" preserveAspectRatio="xMidYMid" width="94.469" height="37" viewBox="0 0 94.469 37"><defs><style>.cls-1 { fill: #fff; fill-rule: evenodd; }</style></defs><path d="M93.25 20.023l-.017.015-.058.035-.27.177-.004-.014c-1.68 1.004-3.9 2.544-5.917 4.226-.227 2.02-.55 4.272-.996 6.064-.808 3.242-3.318 6.484-6.368 6.484-2.1 0-2.694-1.907-2.314-3.433.865-3.47 4.164-7.017 7.362-9.84.178-1.983.314-4.12.404-5.91-1.825 2.554-4.052 5.07-7.022 5.07-3.485 0-4.592-2.592-3.813-5.72.295-1.182.64-2.097 1.348-3.66.252-.535.822-.917 1.376-.917.714 0 1.047.572.905 1.145-.02.076-.078.152-.097.228-.687 1.488-.88 2.098-1.155 3.204-.55 2.212-.052 3.433 2.007 3.433 2.337 0 5.614-4.348 6.694-8.048.182-.572.79-1.106 1.463-1.106.555 0 .935.382.92.916-.067 2.02-.16 5.568-.437 9.23 1.856-1.412 3.626-2.632 5.102-3.47.153-.1.31-.142.468-.165l.732-.342.907 1.594-1.22.803zM79.683 33.577c-.19.763.23 1.144.507 1.144.91 0 2.708-1.333 3.42-4.194.267-1.068.5-2.326.675-3.66-2.36 2.325-4.11 4.728-4.603 6.71zM71 15.69c-.295.23-.6.343-.917.343-.634 0-1.055-.534-.903-1.144.076-.306.26-.573.556-.802 3.683-2.86 5.49-5.988 6.176-8.734.522-2.098-.35-3.05-.824-3.05-.793 0-1.46.456-2.72 2.325-1.334 2.02-2.954 6.14-4.075 10.64-.58 2.327-1.09 4.69-1.5 6.98 2.002-.572 4.06-.877 5.524-.877.076 0 .148.008.217.023l.622-.24.375 2.313-1.426.133c-.12.034-.24.058-.357.058-1.307 0-3.44.46-5.365 1.03-.817 5.188-1.148 9.536-.84 10.68.042.152.034.343-.004.496-.142.572-.76 1.144-1.473 1.144-.436 0-.805-.267-.908-.65-.453-1.677-.14-5.796.66-10.754-.58.267-.813-1.983.42-2.48.478-2.554 1.024-5.224 1.68-7.856 1.16-4.653 2.738-8.924 4.444-11.48C71.638 1.845 73.28.014 75.66.014c2.693 0 3.247 2.86 2.63 5.34C77.45 8.71 75.174 12.448 71 15.69zm-9.253-6.903c-.673 0-1.065-.496-.903-1.145.19-.763.776-1.525 1.568-1.525.673 0 1.065.496.903 1.144-.19.764-.776 1.527-1.568 1.527zM61.59 12.6c-.087.344-1.6 3.242-2.41 6.484-.445 1.793.01 2.67.92 2.67 1.11 0 1.52-.38 2.076-.38.594 0 1.074.456.903 1.143-.115.457-.497.877-.98 1.068-.178.076-1.302.457-2.57.457-1.958 0-2.73-1.212-2.9-2.613-.13.198-.297.38-.54.515-2.895 1.602-4.96 2.097-7.138 2.097-1.718 0-3.02-.65-3.745-1.723-.168.195-.382.362-.618.464-2.347.99-3.88 1.258-5.582 1.258-3.802 0-5.624-2.86-4.72-6.483.797-3.205 3.935-6.104 7.46-6.104 2.217 0 3.542 1.678 3.01 3.814-.713 2.86-3.905 5.34-6.767 6.18.43.19.955.304 1.588.304 1.466 0 2.405-.114 4.494-1.03.17-.073.368-.11.524-.112-.067-.586-.028-1.226.142-1.91.903-3.622 4.974-7.246 8.934-7.246 1.148 0 3.11.23 2.788 1.526-.17.686-.88 1.144-1.473 1.144-.158 0-.347-.038-.486-.114-.378-.23-.685-.267-1.398-.267-2.376 0-5.37 2.48-5.988 4.958-.465 1.87.468 3.05 2.408 3.05 1.783 0 3.077-.266 5.695-1.715.227-.115.483-.19.72-.19.274 0 .517.107.69.283.035-.36.096-.716.178-1.046.817-3.28 2.504-6.712 2.514-6.75.25-.534.81-.878 1.366-.878.713 0 1.045.572.903 1.144zM42.38 15.27c.228-.915-.254-1.525-1.204-1.525-2.02 0-3.983 1.678-4.515 3.814-.18.723-.223 1.372-.118 1.906 2.178 0 5.362-2.29 5.837-4.196zM26.25 24.042c-1.15 0-1.884-.23-2.372-.495-.348-.19-.52-.61-.417-1.03.172-.687.88-1.144 1.475-1.144.158 0 .346.038.486.114.21.114.568.267 1.4.267 1.82 0 3.624-1.83 4.213-4.195.57-2.29-.277-3.815-2.218-3.815-2.196 0-6.862 4.805-12.383 22.197-.192.61-.86 1.068-1.454 1.068-.713 0-1.027-.65-.903-1.144 2.85-11.442 3.75-17.125 3.257-18.956-.04-.152-.033-.343.005-.496.142-.572.76-1.144 1.473-1.144.435 0 .804.267.907.65.37 1.372.167 3.18.046 5.235 2.612-5.476 5.74-9.7 9.622-9.7 3.604 0 4.784 3.052 4.024 6.104-.742 2.973-3.438 6.482-7.16 6.482zm-11.417-12.89c-.018.007-.04.01-.057.016l-1.022-1.703c.118-.12.247-.225.385-.297.225-.115 1.426-.8 1.702-1.907.285-1.143-.397-1.906-1.902-1.906-2.81 0-7.378 2.593-7.872 4.577-.323 1.297 1.187 2.71 4.535 3.89 2.99 1.03 6.655 2.06 5.857 5.264-.408 1.64-2.01 2.67-3.48 3.318-3.006 1.31-7.402 1.626-11.755 1.638l-.006.022H0l.062-2.312h1.772c4.183-.02 8.425-.476 10.63-1.407 1.193-.496 1.554-.992 1.62-1.26.247-.99-1.158-1.868-4.725-3.126C6.15 14.85 2.873 13.21 3.69 9.93c1.026-4.118 7.294-6.864 10.818-6.864 2.456 0 4.373 1.525 3.708 4.195-.656 2.633-3.208 3.815-3.385 3.89z" class="cls-1"/></svg>