<svg xmlns="http://www.w3.org/2000/svg" xmlns:xlink="http://www.w3.org/1999/xlink" preserveAspectRatio="xMidYMid" width="10.969" height="12" viewBox="0 0 10.969 12">
  <defs>
    <style>
      .cls-1 {
        fill: #39f;
        fill-rule: evenodd;
      }
    </style>
  </defs>
  <path d="M4.986,0.919 L1.305,4.474 C-0.474,6.192 -0.474,8.978 1.305,10.696 C3.083,12.414 5.967,12.413 7.745,10.695 L10.966,7.584 L10.046,6.696 L6.825,9.806 C6.211,10.400 5.394,10.727 4.525,10.727 C3.656,10.727 2.839,10.400 2.225,9.807 C1.610,9.213 1.272,8.424 1.272,7.585 C1.272,6.746 1.611,5.957 2.225,5.363 L5.906,1.808 C6.667,1.072 7.905,1.072 8.666,1.808 C9.427,2.543 9.427,3.739 8.666,4.474 L4.985,8.029 C4.732,8.274 4.319,8.274 4.065,8.029 C3.812,7.784 3.812,7.385 4.065,7.140 L7.286,4.029 L6.366,3.141 L3.145,6.252 C2.383,6.988 2.383,8.182 3.145,8.918 C3.907,9.654 5.143,9.654 5.905,8.918 L9.586,5.362 C10.857,4.135 10.857,2.146 9.586,0.919 C8.316,-0.308 6.256,-0.308 4.986,0.919 Z" class="cls-1"/>
</svg>
