<svg xmlns="http://www.w3.org/2000/svg" xmlns:xlink="http://www.w3.org/1999/xlink" preserveAspectRatio="xMidYMid" width="23.938" height="21.969" viewBox="0 0 23.938 21.969">
  <defs>
    <style>
      .cls-1 {
        fill: #fff;
        fill-rule: evenodd;
      }
    </style>
  </defs>
  <path d="M19.937,18.031 L19.937,21.969 L18.094,21.969 L18.094,18.031 L14.031,18.031 L14.031,15.969 L18.094,15.969 L18.094,12.031 L19.937,12.031 L19.937,15.969 L23.937,15.969 L23.937,18.031 L19.937,18.031 ZM17.965,5.003 L9.117,5.035 C8.835,5.035 8.565,4.919 8.366,4.712 L5.818,2.075 L2.001,2.075 L2.001,15.949 L12.012,15.949 L12.012,18.024 L1.063,18.024 C0.476,18.024 -0.000,17.531 -0.000,16.924 L-0.000,1.100 C-0.000,0.492 0.476,-0.000 1.063,-0.000 L6.258,-0.000 C6.540,-0.000 6.810,0.116 7.009,0.322 L9.557,2.959 L19.028,2.959 C19.615,2.959 20.028,3.452 20.028,4.059 L20.028,10.014 L17.965,9.982 L17.965,5.003 Z" class="cls-1"/>
</svg>
