<svg xmlns="http://www.w3.org/2000/svg" xmlns:xlink="http://www.w3.org/1999/xlink" preserveAspectRatio="xMidYMid" width="52" height="47" viewBox="0 0 52 47">
  <defs>
    <style>
      .cls-1 {
        fill: #434447;
        opacity: 0.2;
        fill-rule: evenodd;
      }
    </style>
  </defs>
  <path d="M52.001,42.972 C52.001,43.223 51.896,43.465 51.721,43.640 L48.643,46.718 C48.553,46.804 48.449,46.874 48.335,46.922 C48.325,46.927 48.316,46.931 48.306,46.931 C48.273,46.946 48.240,46.955 48.207,46.960 C48.178,46.969 48.150,46.974 48.121,46.979 C48.074,46.988 48.022,46.993 47.974,46.993 C47.723,46.993 47.481,46.893 47.300,46.718 L40.485,39.898 L38.024,44.958 C37.858,45.305 37.498,45.518 37.114,45.490 C36.735,45.465 36.402,45.214 36.274,44.854 L32.931,35.137 L0.951,35.137 C0.425,35.137 0.003,34.710 0.003,34.188 L0.003,11.824 L0.003,9.927 L0.003,0.955 C0.003,0.429 0.425,0.006 0.951,0.006 L40.652,0.006 C41.174,0.006 41.601,0.429 41.601,0.955 L41.601,9.927 L41.601,11.824 L41.601,28.432 L49.858,31.272 C50.219,31.396 50.474,31.727 50.493,32.112 C50.517,32.496 50.309,32.856 49.962,33.022 L44.902,35.479 L51.721,42.298 C51.896,42.478 52.000,42.720 52.001,42.972 ZM39.703,1.903 L1.900,1.903 L1.899,1.903 L1.899,27.943 L9.649,20.199 C10.005,19.843 10.635,19.843 10.991,20.199 L15.406,24.609 L28.605,11.416 C28.961,11.060 29.591,11.060 29.947,11.416 L39.703,21.166 L39.703,1.903 ZM39.703,23.851 L29.274,13.427 L16.075,26.625 C15.719,26.981 15.094,26.981 14.738,26.625 L10.322,22.210 L1.900,30.628 L1.900,33.240 L32.276,33.240 L29.810,26.065 C29.686,25.705 29.791,25.320 30.052,25.074 C30.057,25.070 30.057,25.070 30.061,25.070 C30.303,24.795 30.697,24.677 31.067,24.805 L39.703,27.778 L39.703,23.851 ZM42.616,35.883 C42.402,35.665 42.303,35.356 42.355,35.053 C42.402,34.750 42.597,34.489 42.877,34.356 L47.069,32.322 L32.210,27.210 L34.482,33.820 C34.496,33.849 34.506,33.877 34.515,33.910 L37.323,42.067 L39.357,37.870 C39.495,37.594 39.751,37.400 40.054,37.348 C40.358,37.301 40.666,37.395 40.885,37.613 L47.974,44.703 L49.711,42.973 L42.616,35.883 ZM12.587,16.137 C9.996,16.137 7.889,14.029 7.889,11.440 C7.889,8.849 9.997,6.742 12.587,6.742 C15.177,6.742 17.284,8.850 17.284,11.440 C17.284,14.029 15.178,16.137 12.587,16.137 ZM12.587,8.638 C11.042,8.638 9.786,9.895 9.786,11.439 C9.786,12.983 11.043,14.239 12.587,14.239 C14.131,14.239 15.387,12.982 15.387,11.439 C15.387,9.895 14.131,8.638 12.587,8.638 Z" class="cls-1"/>
</svg>
