<svg xmlns="http://www.w3.org/2000/svg" xmlns:xlink="http://www.w3.org/1999/xlink" preserveAspectRatio="xMidYMid" width="11" height="12.062" viewBox="0 0 11 12.062">
  <defs>
    <style>
      .cls-1 {
        fill: #999;
        fill-rule: evenodd;
      }
    </style>
  </defs>
  <path d="M5.500,12.062 C2.467,12.062 -0.000,9.731 -0.000,6.865 C-0.000,4.000 2.467,1.669 5.500,1.669 C8.532,1.669 11.000,3.999 11.000,6.865 C11.000,9.731 8.532,12.062 5.500,12.062 ZM5.500,2.665 C3.049,2.665 1.054,4.549 1.054,6.865 C1.054,9.182 3.049,11.066 5.500,11.066 C7.951,11.066 9.945,9.182 9.945,6.865 C9.945,4.549 7.951,2.665 5.500,2.665 ZM7.408,7.018 L5.757,7.219 C5.682,7.268 5.597,7.303 5.499,7.303 C5.243,7.303 5.036,7.107 5.036,6.865 L5.036,4.307 C5.036,4.065 5.243,3.869 5.499,3.869 C5.755,3.869 5.963,4.065 5.963,4.307 L5.963,6.261 L7.296,6.098 C7.483,6.075 7.659,6.262 7.690,6.516 C7.721,6.771 7.595,6.995 7.408,7.018 ZM5.113,1.036 L4.349,1.036 L4.349,0.721 C4.349,0.322 4.691,-0.001 5.113,-0.001 C5.255,-0.001 5.734,-0.001 5.877,-0.001 C6.299,-0.001 6.641,0.322 6.640,0.721 L6.640,1.036 L5.877,1.036 L5.113,1.036 Z" class="cls-1"/>
</svg>
