<svg xmlns="http://www.w3.org/2000/svg" xmlns:xlink="http://www.w3.org/1999/xlink" preserveAspectRatio="xMidYMid" width="16" height="16" viewBox="0 0 16 16">
  <defs>
    <style>
      .cls-1 {
        fill: #fff;
        fill-rule: evenodd;
      }
    </style>
  </defs>
  <path d="M15.760,3.702 L13.646,5.819 L5.484,13.993 C5.411,14.068 5.324,14.126 5.228,14.166 L1.147,15.919 C1.041,15.964 0.931,15.985 0.823,15.985 C0.609,15.985 0.398,15.900 0.240,15.743 C0.003,15.505 -0.065,15.147 0.067,14.837 L1.814,10.749 C1.856,10.653 1.915,10.566 1.988,10.490 L10.150,2.317 L12.264,0.200 C12.571,-0.108 13.116,-0.108 13.426,0.200 L15.760,2.538 C15.913,2.693 16.000,2.903 15.999,3.121 C15.999,3.338 15.913,3.547 15.760,3.702 ZM3.263,11.544 L2.387,13.595 L4.434,12.715 L11.714,5.424 L10.545,4.252 L3.263,11.544 ZM12.843,1.948 L11.374,3.420 L12.545,4.594 L14.015,3.121 L12.843,1.948 Z" class="cls-1"/>
</svg>
