<svg xmlns="http://www.w3.org/2000/svg" xmlns:xlink="http://www.w3.org/1999/xlink" preserveAspectRatio="xMidYMid" width="24" height="24" viewBox="0 0 24 24">
  <defs>
    <style>
      .cls-1 {
        fill: #d4d6dc;
        fill-rule: evenodd;
      }
    </style>
  </defs>
  <path d="M12.000,0.001 C5.373,0.001 0.001,5.373 0.001,12.000 C0.001,18.627 5.373,23.999 12.000,23.999 C14.485,23.999 16.851,23.164 18.772,21.862 C18.899,21.806 19.013,21.728 19.111,21.634 C19.113,21.633 19.115,21.632 19.117,21.630 L19.116,21.630 C19.334,21.419 19.469,21.124 19.469,20.798 C19.469,20.155 18.950,19.635 18.307,19.635 C18.078,19.635 17.865,19.703 17.685,19.818 L17.681,19.812 C16.084,20.976 14.127,21.674 12.000,21.674 C6.658,21.674 2.327,17.343 2.327,12.000 C2.327,6.657 6.658,2.327 12.000,2.327 C17.343,2.327 21.674,6.657 21.674,12.000 C21.674,12.807 21.574,13.591 21.386,14.339 C21.349,14.488 21.293,14.628 21.249,14.774 C20.967,15.515 20.482,15.930 19.749,15.930 C18.881,15.930 18.178,15.227 18.178,14.360 C18.178,14.353 18.180,14.346 18.180,14.340 L18.178,14.340 L18.178,12.000 L18.178,7.648 L18.171,7.648 C18.137,7.063 17.657,6.598 17.064,6.598 C16.587,6.598 16.183,6.898 16.024,7.318 C14.944,6.387 13.539,5.823 12.000,5.823 C8.589,5.823 5.823,8.589 5.823,12.000 C5.823,15.411 8.589,18.177 12.000,18.177 C13.759,18.177 15.341,17.439 16.467,16.260 C17.131,17.405 18.367,18.177 19.786,18.177 C21.115,18.177 22.286,17.501 22.974,16.474 C23.752,15.316 23.999,13.583 23.999,11.999 C24.000,5.373 18.627,0.001 12.000,0.001 ZM12.000,15.947 C9.820,15.947 8.053,14.180 8.053,12.000 C8.053,9.820 9.821,8.053 12.000,8.053 C14.181,8.053 15.948,9.820 15.948,12.000 C15.948,14.180 14.181,15.947 12.000,15.947 Z" class="cls-1"/>
</svg>
