<svg xmlns="http://www.w3.org/2000/svg" xmlns:xlink="http://www.w3.org/1999/xlink" preserveAspectRatio="xMidYMid" width="17.031" height="31.031" viewBox="0 0 17.031 31.031">
  <defs>
    <style>
      .cls-1 {
        fill: #fff;
        fill-rule: evenodd;
      }
    </style>
  </defs>
  <path d="M16.386,0.021 L12.709,0.015 C8.026,0.015 5.000,3.104 5.000,7.885 L5.000,11.987 L0.659,11.987 C0.297,11.987 0.004,12.279 0.004,12.639 L0.004,17.334 C0.004,17.695 0.297,17.986 0.659,17.986 L5.000,17.986 L5.000,30.377 C5.000,30.738 5.293,31.029 5.655,31.029 L11.365,31.029 C11.727,31.029 12.021,30.737 12.021,30.377 L12.021,17.986 L16.367,17.986 C16.729,17.986 17.022,17.695 17.022,17.334 L17.024,12.639 C17.024,12.466 16.955,12.301 16.832,12.178 C16.709,12.056 16.542,11.987 16.368,11.987 L12.021,11.987 L12.021,8.219 C12.021,6.741 12.375,5.991 14.311,5.991 L16.386,5.989 C16.747,5.989 17.041,5.697 17.041,5.337 L17.041,0.673 C17.041,0.314 16.748,0.022 16.386,0.021 Z" class="cls-1"/>
</svg>
