<svg xmlns="http://www.w3.org/2000/svg" xmlns:xlink="http://www.w3.org/1999/xlink" preserveAspectRatio="xMidYMid" width="31.188" height="31.469" viewBox="0 0 31.188 31.469">
  <defs>
    <style>
      .cls-1 {
        fill: #fff;
        fill-rule: evenodd;
      }
    </style>
  </defs>
  <path d="M1.715,7.848 C1.715,10.519 2.611,12.447 4.379,13.580 C5.826,14.508 7.507,14.646 8.380,14.646 C8.592,14.646 8.762,14.638 8.881,14.630 C8.881,14.630 8.604,16.424 9.941,18.200 L9.881,18.199 C7.563,18.200 0.006,18.682 0.006,24.863 C0.006,31.152 6.947,31.472 8.340,31.472 C8.449,31.472 8.512,31.470 8.512,31.470 C8.528,31.470 8.627,31.474 8.796,31.474 C9.690,31.474 12.000,31.362 14.146,30.324 C16.928,28.980 18.340,26.643 18.340,23.377 C18.340,20.221 16.190,18.342 14.619,16.969 C13.661,16.133 12.833,15.410 12.833,14.708 C12.833,13.992 13.438,13.454 14.202,12.773 C15.441,11.671 16.608,10.103 16.608,7.138 C16.608,4.532 16.268,2.783 14.175,1.673 C14.394,1.562 15.165,1.481 15.547,1.428 C16.681,1.274 18.340,1.099 18.340,0.178 L18.340,-0.000 L10.074,-0.000 C9.991,0.002 1.715,0.307 1.715,7.848 ZM15.058,23.965 C15.216,26.481 13.054,28.336 9.807,28.571 C6.509,28.811 3.794,27.334 3.636,24.822 C3.559,23.615 4.093,22.432 5.137,21.490 C6.197,20.536 7.651,19.947 9.233,19.831 C9.420,19.819 9.605,19.812 9.790,19.812 C12.842,19.812 14.909,21.596 15.058,23.965 ZM12.900,6.127 C13.711,8.964 12.486,11.931 10.535,12.478 C10.311,12.541 10.078,12.573 9.844,12.573 C8.056,12.573 6.285,10.774 5.629,8.296 C5.262,6.903 5.292,5.686 5.712,4.516 C6.126,3.365 6.868,2.587 7.802,2.326 C8.027,2.262 8.260,2.230 8.494,2.230 C10.653,2.230 12.041,3.120 12.900,6.127 ZM26.209,12.970 L26.209,7.977 L23.207,7.977 L23.207,12.970 L18.228,12.970 L18.228,15.996 L23.207,15.996 L23.207,21.031 L26.209,21.031 L26.209,15.996 L31.189,15.996 L31.189,12.970 L26.209,12.970 Z" class="cls-1"/>
</svg>
