<svg xmlns="http://www.w3.org/2000/svg" xmlns:xlink="http://www.w3.org/1999/xlink" preserveAspectRatio="xMidYMid" width="18" height="4" viewBox="0 0 18 4">
  <defs>
    <style>
      .cls-1 {
        fill: #333;
        fill-rule: evenodd;
      }
    </style>
  </defs>
  <path d="M16.000,4.000 C14.895,4.000 14.000,3.104 14.000,2.000 C14.000,0.895 14.895,-0.000 16.000,-0.000 C17.105,-0.000 18.000,0.895 18.000,2.000 C18.000,3.104 17.105,4.000 16.000,4.000 ZM9.000,4.000 C7.895,4.000 7.000,3.104 7.000,2.000 C7.000,0.895 7.895,-0.000 9.000,-0.000 C10.105,-0.000 11.000,0.895 11.000,2.000 C11.000,3.104 10.105,4.000 9.000,4.000 ZM2.000,4.000 C0.895,4.000 -0.000,3.104 -0.000,2.000 C-0.000,0.895 0.895,-0.000 2.000,-0.000 C3.105,-0.000 4.000,0.895 4.000,2.000 C4.000,3.104 3.105,4.000 2.000,4.000 Z" class="cls-1"/>
</svg>
