<svg xmlns="http://www.w3.org/2000/svg" xmlns:xlink="http://www.w3.org/1999/xlink" preserveAspectRatio="xMidYMid" width="19.719" height="19.719" viewBox="0 0 19.719 19.719">
  <defs>
    <style>
      .cls-1 {
        fill: #83858f;
        fill-rule: evenodd;
      }
    </style>
  </defs>
  <path d="M19.707,18.293 L18.293,19.707 L12.900,14.314 C11.545,15.367 9.848,16.000 8.000,16.000 C3.582,16.000 -0.000,12.418 -0.000,8.000 C-0.000,3.582 3.582,-0.000 8.000,-0.000 C12.418,-0.000 16.000,3.582 16.000,8.000 C16.000,9.848 15.367,11.545 14.314,12.900 L19.707,18.293 ZM8.000,2.000 C4.686,2.000 2.000,4.686 2.000,8.000 C2.000,11.314 4.686,14.000 8.000,14.000 C11.314,14.000 14.000,11.314 14.000,8.000 C14.000,4.686 11.314,2.000 8.000,2.000 Z" class="cls-1"/>
</svg>
