<svg xmlns="http://www.w3.org/2000/svg" xmlns:xlink="http://www.w3.org/1999/xlink" preserveAspectRatio="xMidYMid" width="16" height="16" viewBox="0 0 16 16">
  <defs>
    <style>
      .cls-1 {
        fill: #696b73;
        fill-rule: evenodd;
      }
    </style>
  </defs>
  <path d="M16.003,8.848 L16.003,7.242 C16.003,7.084 15.868,6.948 15.710,6.948 L14.425,6.948 C14.290,6.948 14.177,6.858 14.132,6.722 C13.974,5.975 13.681,5.274 13.275,4.641 C13.208,4.528 13.208,4.369 13.320,4.279 L14.222,3.374 C14.335,3.261 14.335,3.080 14.222,2.967 L13.095,1.836 C12.982,1.722 12.802,1.722 12.689,1.836 L11.787,2.740 C11.697,2.831 11.539,2.854 11.427,2.786 C10.795,2.379 10.097,2.084 9.353,1.926 C9.217,1.903 9.127,1.790 9.127,1.632 L9.127,0.297 C9.127,0.139 8.992,0.003 8.834,0.003 L7.233,0.003 C7.076,0.003 6.940,0.139 6.940,0.297 L6.940,1.587 C6.940,1.722 6.850,1.836 6.715,1.881 C5.971,2.039 5.272,2.333 4.641,2.740 C4.528,2.808 4.370,2.808 4.280,2.695 L3.378,1.790 C3.266,1.677 3.085,1.677 2.973,1.790 L1.845,2.921 C1.733,3.035 1.733,3.216 1.845,3.329 L2.747,4.233 C2.837,4.324 2.860,4.482 2.792,4.595 C2.386,5.229 2.093,5.930 1.935,6.677 C1.913,6.812 1.800,6.903 1.642,6.903 L0.290,6.903 C0.132,6.903 -0.003,7.039 -0.003,7.197 L-0.003,8.803 C-0.003,8.961 0.132,9.097 0.290,9.097 L1.575,9.097 C1.710,9.097 1.823,9.188 1.868,9.323 C2.026,10.070 2.319,10.771 2.725,11.404 C2.792,11.518 2.792,11.676 2.679,11.766 L1.778,12.671 C1.665,12.784 1.665,12.965 1.778,13.078 L2.905,14.210 C3.018,14.323 3.198,14.323 3.311,14.210 L4.212,13.305 C4.303,13.214 4.460,13.192 4.573,13.259 C5.204,13.667 5.903,13.961 6.647,14.119 C6.783,14.142 6.873,14.255 6.873,14.413 L6.873,15.703 C6.873,15.861 7.008,15.997 7.166,15.997 L8.766,15.997 C8.924,15.997 9.060,15.861 9.060,15.703 L9.060,14.413 C9.060,14.277 9.150,14.164 9.285,14.119 C10.029,13.961 10.728,13.667 11.359,13.259 C11.472,13.192 11.630,13.192 11.720,13.305 L12.622,14.210 C12.734,14.323 12.915,14.323 13.027,14.210 L14.155,13.078 C14.267,12.965 14.267,12.784 14.155,12.671 L13.253,11.766 C13.163,11.676 13.140,11.518 13.208,11.404 C13.613,10.771 13.907,10.070 14.064,9.323 C14.087,9.188 14.200,9.097 14.357,9.097 L15.643,9.097 C15.868,9.120 16.003,9.007 16.003,8.848 ZM8.541,12.106 C5.858,12.445 3.604,10.183 3.942,7.491 C4.167,5.659 5.633,4.188 7.459,3.962 C10.142,3.623 12.396,5.885 12.058,8.577 C11.833,10.409 10.367,11.880 8.541,12.106 Z" class="cls-1"/>
</svg>
