<svg xmlns="http://www.w3.org/2000/svg" xmlns:xlink="http://www.w3.org/1999/xlink" preserveAspectRatio="xMidYMid" width="16" height="16" viewBox="0 0 16 16">
  <defs>
    <style>
      .cls-1 {
        fill: #fff;
        fill-rule: evenodd;
      }
    </style>
  </defs>
  <path d="M13.513,5.004 C12.775,5.004 12.119,4.679 11.662,4.171 L4.985,7.770 C4.993,7.849 5.009,7.925 5.009,8.005 C5.009,8.081 4.994,8.151 4.987,8.224 L11.672,11.827 C12.129,11.326 12.781,11.006 13.513,11.006 C14.894,11.006 16.014,12.127 16.014,13.507 C16.014,14.889 14.894,16.008 13.513,16.008 C12.132,16.008 11.012,14.889 11.012,13.507 C11.012,13.474 11.020,13.442 11.022,13.409 L4.277,9.774 C3.824,10.226 3.199,10.506 2.509,10.506 C1.127,10.506 0.008,9.387 0.008,8.005 C0.008,6.624 1.127,5.504 2.509,5.504 C3.193,5.504 3.813,5.781 4.264,6.227 L11.020,2.585 C11.019,2.557 11.012,2.531 11.012,2.503 C11.012,1.122 12.132,0.002 13.513,0.002 C14.894,0.002 16.014,1.122 16.014,2.503 C16.014,3.885 14.894,5.004 13.513,5.004 Z" class="cls-1"/>
</svg>
