<svg xmlns="http://www.w3.org/2000/svg" xmlns:xlink="http://www.w3.org/1999/xlink" preserveAspectRatio="xMidYMid" width="10" height="10" viewBox="0 0 10 10">
  <defs>
    <style>
      .cls-1 {
        fill: #272829;
        fill-rule: evenodd;
      }
    </style>
  </defs>
  <path d="M4.000,10.000 L4.000,8.000 L10.000,8.000 L10.000,10.000 L4.000,10.000 ZM4.000,4.000 L10.000,4.000 L10.000,6.000 L4.000,6.000 L4.000,4.000 ZM4.000,-0.000 L10.000,-0.000 L10.000,2.000 L4.000,2.000 L4.000,-0.000 ZM-0.000,8.000 L2.000,8.000 L2.000,10.000 L-0.000,10.000 L-0.000,8.000 ZM-0.000,4.000 L2.000,4.000 L2.000,6.000 L-0.000,6.000 L-0.000,4.000 ZM-0.000,-0.000 L2.000,-0.000 L2.000,2.000 L-0.000,2.000 L-0.000,-0.000 Z" class="cls-1"/>
</svg>
