<svg xmlns="http://www.w3.org/2000/svg" xmlns:xlink="http://www.w3.org/1999/xlink" preserveAspectRatio="xMidYMid" width="17.469" height="20.469" viewBox="0 0 17.469 20.469">
  <defs>
    <style>
      .cls-1 {
        fill: #272829;
        fill-rule: evenodd;
      }
    </style>
  </defs>
  <path d="M15.330,3.550 L17.452,5.672 L16.015,7.108 L13.894,4.987 L11.751,7.130 L10.336,5.716 L12.480,3.572 L10.381,1.473 L11.817,0.037 L13.916,2.136 L16.059,-0.007 L17.474,1.407 L15.330,3.550 ZM14.787,9.070 C15.454,9.070 16.121,9.070 16.787,9.070 C16.950,14.074 10.694,17.900 8.487,20.470 C8.321,20.303 8.154,20.137 7.987,19.970 C4.895,17.285 1.042,14.227 0.287,11.070 C-1.115,5.202 3.353,0.720 8.387,0.770 C8.387,1.437 8.387,2.103 8.387,2.770 C4.492,2.751 0.860,6.989 2.367,10.966 C3.447,13.816 8.315,17.562 8.387,17.770 C8.654,17.503 8.921,17.237 9.187,16.970 C12.400,14.308 14.657,12.133 14.787,9.070 Z" class="cls-1"/>
</svg>
