<svg xmlns="http://www.w3.org/2000/svg" xmlns:xlink="http://www.w3.org/1999/xlink" preserveAspectRatio="xMidYMid" width="15" height="16" viewBox="0 0 15 16">
  <defs>
    <style>
      .cls-1 {
        fill: #fff;
        fill-rule: evenodd;
      }
    </style>
  </defs>
  <path d="M14.262,4.736 L13.114,4.736 L13.114,15.247 C13.114,15.659 12.781,15.993 12.370,15.993 L2.632,15.993 C2.221,15.993 1.888,15.659 1.888,15.247 L1.888,4.735 L0.740,4.735 C0.329,4.735 -0.004,4.401 -0.004,3.989 C-0.004,3.576 0.329,3.242 0.740,3.242 L4.281,3.242 L4.281,0.749 C4.281,0.338 4.614,0.002 5.025,0.002 L9.977,0.002 C10.388,0.002 10.721,0.338 10.721,0.749 L10.721,3.242 L14.262,3.242 C14.673,3.242 15.006,3.576 15.006,3.989 C15.006,4.401 14.673,4.736 14.262,4.736 ZM9.233,1.495 L5.769,1.495 L5.769,3.242 L9.233,3.242 L9.233,1.495 ZM11.625,4.736 L3.376,4.736 L3.376,14.500 L11.625,14.500 L11.625,4.736 ZM5.861,5.606 C6.272,5.606 6.605,5.940 6.605,6.353 L6.605,12.883 C6.606,13.295 6.272,13.630 5.861,13.630 C5.450,13.630 5.117,13.295 5.117,12.883 L5.117,6.353 C5.117,5.940 5.450,5.606 5.861,5.606 ZM9.141,5.606 C9.552,5.606 9.885,5.940 9.885,6.353 L9.885,12.883 C9.885,13.295 9.552,13.630 9.141,13.630 C8.730,13.630 8.397,13.295 8.397,12.883 L8.397,6.353 C8.397,5.940 8.730,5.606 9.141,5.606 Z" class="cls-1"/>
</svg>
