<svg xmlns="http://www.w3.org/2000/svg" xmlns:xlink="http://www.w3.org/1999/xlink" preserveAspectRatio="xMidYMid" width="32.187" height="26" viewBox="0 0 32.187 26">
  <defs>
    <style>
      .cls-1 {
        fill: #fff;
        fill-rule: evenodd;
      }
    </style>
  </defs>
  <path d="M32.173,3.066 C30.989,3.588 29.717,3.941 28.382,4.100 C29.745,3.287 30.791,2.000 31.284,0.467 C30.009,1.220 28.597,1.766 27.093,2.060 C25.889,0.784 24.174,-0.013 22.275,-0.013 C18.630,-0.013 15.675,2.927 15.675,6.553 C15.675,7.068 15.734,7.569 15.846,8.049 C10.361,7.776 5.498,5.161 2.242,1.189 C1.674,2.158 1.349,3.286 1.349,4.490 C1.349,6.768 2.514,8.778 4.285,9.955 C3.203,9.921 2.185,9.626 1.295,9.134 C1.295,9.161 1.295,9.189 1.295,9.217 C1.295,12.398 3.570,15.052 6.589,15.655 C6.035,15.805 5.452,15.886 4.850,15.886 C4.425,15.886 4.012,15.844 3.609,15.768 C4.448,18.376 6.886,20.275 9.774,20.328 C7.515,22.089 4.669,23.139 1.577,23.139 C1.044,23.139 0.519,23.108 0.003,23.047 C2.923,24.910 6.393,25.997 10.120,25.997 C22.260,25.997 28.899,15.992 28.899,7.314 C28.899,7.030 28.892,6.746 28.880,6.465 C30.169,5.539 31.288,4.383 32.173,3.066 Z" class="cls-1"/>
</svg>
