<svg xmlns="http://www.w3.org/2000/svg" xmlns:xlink="http://www.w3.org/1999/xlink" preserveAspectRatio="xMidYMid" width="17" height="16.031" viewBox="0 0 17 16.031">
  <defs>
    <style>
      .cls-1 {
        fill: #696b73;
        fill-rule: evenodd;
      }
    </style>
  </defs>
  <path d="M8.855,0.265 C8.806,0.111 8.659,0.005 8.492,0.005 C8.326,0.005 8.178,0.110 8.129,0.264 L6.430,5.573 C6.381,5.727 6.234,5.832 6.068,5.832 L0.380,5.832 C0.215,5.832 0.069,5.935 0.018,6.087 C-0.032,6.239 0.025,6.405 0.159,6.498 L4.796,9.711 C4.930,9.804 4.987,9.970 4.936,10.122 L3.136,15.514 C3.085,15.667 3.143,15.834 3.278,15.927 C3.412,16.020 3.594,16.017 3.726,15.921 L8.266,12.615 C8.401,12.517 8.587,12.516 8.722,12.615 L13.276,15.916 C13.407,16.012 13.589,16.014 13.723,15.922 C13.858,15.829 13.915,15.663 13.865,15.511 L12.103,10.136 C12.054,9.985 12.110,9.821 12.242,9.728 L16.844,6.496 C16.977,6.403 17.033,6.237 16.983,6.086 C16.932,5.934 16.786,5.832 16.622,5.832 L10.897,5.832 C10.731,5.832 10.583,5.726 10.534,5.572 L8.855,0.265 Z" class="cls-1"/>
</svg>
