<svg xmlns="http://www.w3.org/2000/svg" xmlns:xlink="http://www.w3.org/1999/xlink" preserveAspectRatio="xMidYMid" width="25" height="16" viewBox="0 0 25 16">
  <defs>
    <style>
      .cls-1 {
        fill: #145ca6;
        fill-rule: evenodd;
      }
    </style>
  </defs>
  <path d="M19.387,16.004 C19.387,16.004 16.559,16.004 13.993,16.004 L13.972,11.785 L17.890,11.785 L12.499,6.496 L7.107,11.785 L10.977,11.785 L10.977,12.001 L10.989,12.001 L10.989,16.004 C7.854,16.004 4.336,16.004 4.336,16.004 C1.941,16.004 -0.001,14.099 -0.001,11.750 C-0.001,9.564 1.679,7.767 3.841,7.526 C4.089,3.322 7.641,-0.011 11.988,-0.011 C15.414,-0.011 18.347,2.061 19.558,4.998 C22.578,5.087 24.999,7.514 24.999,10.499 C24.999,13.538 22.487,16.004 19.387,16.004 Z" class="cls-1"/>
</svg>
